<svg width="16" height="16" viewBox="0 0 16 16" fill="none" xmlns="http://www.w3.org/2000/svg">
<path fill-rule="evenodd" clip-rule="evenodd" d="M9.28792 3.1704C8.13204 2.86213 6.90393 2.97864 5.82664 3.49877C4.74935 4.01889 3.89432 4.90814 3.41686 6.005C2.93939 7.10187 2.87114 8.3336 3.22452 9.4765C3.57789 10.6194 4.32945 11.5977 5.34268 12.2336C6.35593 12.8696 7.56365 13.121 8.74651 12.9423C9.92937 12.7636 11.0089 12.1666 11.7891 11.2598C12.5693 10.3529 12.9983 9.19628 12.9983 8H13.9983C13.9983 9.43561 13.4834 10.8236 12.5472 11.9119C11.6109 13.0002 10.3154 13.7167 8.89588 13.9311C7.47637 14.1456 6.02703 13.8438 4.81108 13.0806C3.59513 12.3174 2.69321 11.1434 2.26914 9.77189C1.84507 8.40034 1.92697 6.92218 2.49996 5.60588C3.07295 4.28957 4.09903 3.22242 5.39185 2.59823C6.68467 1.97405 8.15848 1.83423 9.54561 2.20417C10.5142 2.4625 11.3957 2.95741 12.1153 3.63604L12.2366 2.55799C12.2675 2.28358 12.515 2.08616 12.7894 2.11703C13.0638 2.14791 13.2612 2.39539 13.2304 2.6698L12.9495 5.16621L12.8995 5.61031H12.4526H9.7377C9.46156 5.61031 9.2377 5.38645 9.2377 5.11031C9.2377 4.83416 9.46156 4.61031 9.7377 4.61031H11.6733C11.0341 3.91758 10.2082 3.41584 9.28792 3.1704ZM7.78133 4.24524C8.05747 4.24524 8.28133 4.4691 8.28133 4.74524V8.15368L10.2948 9.44437C10.5272 9.59339 10.5949 9.90266 10.4459 10.1351C10.2968 10.3676 9.98755 10.4353 9.75508 10.2862L7.51149 8.84801L7.28133 8.70047V8.42707V4.74524C7.28133 4.4691 7.50518 4.24524 7.78133 4.24524Z" fill="#8A8A8A"/>
</svg>
