<svg width="14" height="10" viewBox="0 0 14 10" fill="none" xmlns="http://www.w3.org/2000/svg">
<path fill-rule="evenodd" clip-rule="evenodd" d="M2.32031 0.5C1.49189 0.5 0.820312 1.17157 0.820312 2V8C0.820312 8.82843 1.49189 9.5 2.32031 9.5H12.3203C13.1487 9.5 13.8203 8.82843 13.8203 8V2C13.8203 1.17157 13.1487 0.5 12.3203 0.5H2.32031ZM1.82031 2C1.82031 1.72386 2.04417 1.5 2.32031 1.5H12.3203C12.5965 1.5 12.8203 1.72386 12.8203 2V8C12.8203 8.27614 12.5965 8.5 12.3203 8.5H2.32031C2.04417 8.5 1.82031 8.27614 1.82031 8V2ZM5.99139 5C5.99139 4.17157 6.66297 3.5 7.49139 3.5C8.31982 3.5 8.99139 4.17157 8.99139 5C8.99139 5.82843 8.31982 6.5 7.49139 6.5C6.66297 6.5 5.99139 5.82843 5.99139 5ZM7.49139 2.5C6.11068 2.5 4.99139 3.61929 4.99139 5C4.99139 6.38071 6.11068 7.5 7.49139 7.5C8.87211 7.5 9.99139 6.38071 9.99139 5C9.99139 3.61929 8.87211 2.5 7.49139 2.5ZM4.55719 5C4.55719 5.55228 4.10947 6 3.55719 6C3.00491 6 2.55719 5.55228 2.55719 5C2.55719 4.44772 3.00491 4 3.55719 4C4.10947 4 4.55719 4.44772 4.55719 5ZM11.4257 6C11.9779 6 12.4257 5.55228 12.4257 5C12.4257 4.44772 11.9779 4 11.4257 4C10.8734 4 10.4257 4.44772 10.4257 5C10.4257 5.55228 10.8734 6 11.4257 6Z" fill="#8A8A8A"/>
</svg>
