<svg width="16" height="10" viewBox="0 0 16 10" fill="none" xmlns="http://www.w3.org/2000/svg">
<path d="M1.03639 8.29366C0.862487 8.50816 0.8954 8.82303 1.1099 8.99693C1.32441 9.17084 1.63927 9.13792 1.81318 8.92342L1.03639 8.29366ZM5.21049 3.93902L5.59888 4.2539L5.21049 3.93902ZM5.95931 3.90737L5.59888 4.2539L5.59888 4.25391L5.95931 3.90737ZM8.78004 6.84116L9.14047 6.49462L8.78004 6.84116ZM9.50725 6.83444L9.87402 7.17425L9.50725 6.83444ZM15.0654 1.35549C15.0549 1.07955 14.8227 0.864392 14.5467 0.87492L10.05 1.04649C9.77406 1.05702 9.5589 1.28925 9.56943 1.56519C9.57996 1.84113 9.81219 2.05629 10.0881 2.04577L14.0852 1.89326L14.2377 5.89035C14.2483 6.16629 14.4805 6.38145 14.7564 6.37092C15.0324 6.36039 15.2475 6.12816 15.237 5.85222L15.0654 1.35549ZM1.81318 8.92342L5.59888 4.2539L4.8221 3.62414L1.03639 8.29366L1.81318 8.92342ZM5.59888 4.25391L8.41961 7.1877L9.14047 6.49462L6.31974 3.56083L5.59888 4.25391ZM9.87402 7.17425L14.9326 1.71437L14.199 1.03474L9.14047 6.49462L9.87402 7.17425ZM8.41961 7.1877C8.81812 7.60219 9.48324 7.59604 9.87402 7.17425L9.14047 6.49462L8.41961 7.1877ZM5.59888 4.2539L5.59888 4.2539L6.31974 3.56083C5.90301 3.12739 5.20076 3.15708 4.8221 3.62414L5.59888 4.2539Z" fill="#01A5EC"/>
</svg>
