<svg width="12" height="16" viewBox="0 0 12 16" fill="none" xmlns="http://www.w3.org/2000/svg">
<path fill-rule="evenodd" clip-rule="evenodd" d="M1.82031 6.8847C1.82031 5.38871 2.27366 4.14614 3.03459 3.28469C3.79051 2.42892 4.87808 1.91589 6.22627 1.91589C7.59007 1.91589 8.73025 2.3942 9.5294 3.21072C10.3288 4.02754 10.8203 5.21721 10.8203 6.69932C10.8203 7.37492 10.5466 8.16871 10.0857 9.01126C9.62926 9.84568 9.01423 10.6831 8.38897 11.4344C7.76514 12.184 7.13989 12.8375 6.66994 13.3041C6.49827 13.4745 6.34772 13.6196 6.22601 13.7349C6.11133 13.6263 5.97111 13.4911 5.81204 13.3331C5.36002 12.8842 4.75865 12.2543 4.15869 11.5284C3.55735 10.8008 2.96607 9.98721 2.52727 9.17091C2.08471 8.3476 1.82031 7.56363 1.82031 6.8847ZM6.55854 14.7895C6.55843 14.7896 6.55835 14.7897 6.22627 14.4159C5.89497 14.7904 5.89488 14.7903 5.89478 14.7902L5.89448 14.7899L5.89354 14.7891L5.89033 14.7863L5.87871 14.7759L5.83539 14.7368C5.79789 14.7029 5.74354 14.6532 5.67474 14.5891C5.53716 14.461 5.34161 14.2753 5.10739 14.0427C4.63954 13.578 4.01442 12.9235 3.38789 12.1655C2.76274 11.4091 2.12754 10.5393 1.64646 9.64438C1.16916 8.75644 0.820312 7.80125 0.820312 6.8847C0.820312 5.18971 1.33535 3.69788 2.28511 2.62267C3.23987 1.54178 4.60527 0.915894 6.22627 0.915894C7.83165 0.915894 9.23849 1.48381 10.2441 2.51126C11.2494 3.5384 11.8203 4.99045 11.8203 6.69932C11.8203 7.6192 11.4572 8.58773 10.963 9.49119C10.4643 10.4028 9.80586 11.2951 9.15761 12.0741C8.50793 12.8547 7.85967 13.532 7.37449 14.0137C7.1316 14.2549 6.92886 14.4477 6.78628 14.5808C6.71497 14.6473 6.65866 14.6989 6.61985 14.7342L6.57506 14.7747L6.56308 14.7855L6.55979 14.7884L6.55884 14.7893L6.55854 14.7895ZM6.22627 14.4159L6.55835 14.7897L6.22697 15.0841L5.89497 14.7904L6.22627 14.4159ZM4.5058 6.78113C4.5058 5.67656 5.40123 4.78113 6.5058 4.78113C7.61037 4.78113 8.5058 5.67656 8.5058 6.78113C8.5058 7.8857 7.61037 8.78113 6.5058 8.78113C5.40123 8.78113 4.5058 7.8857 4.5058 6.78113ZM6.5058 3.78113C4.84894 3.78113 3.5058 5.12427 3.5058 6.78113C3.5058 8.43798 4.84894 9.78113 6.5058 9.78113C8.16265 9.78113 9.5058 8.43798 9.5058 6.78113C9.5058 5.12427 8.16265 3.78113 6.5058 3.78113Z" fill="#8A8A8A"/>
</svg>
