<svg width="16" height="16" viewBox="0 0 16 16" fill="none" xmlns="http://www.w3.org/2000/svg">
<path fill-rule="evenodd" clip-rule="evenodd" d="M3 3.5C2.17157 3.5 1.5 4.17157 1.5 5V11C1.5 11.8284 2.17157 12.5 3 12.5H13C13.8284 12.5 14.5 11.8284 14.5 11V5C14.5 4.17157 13.8284 3.5 13 3.5H3ZM2.5 5C2.5 4.72386 2.72386 4.5 3 4.5H13C13.2761 4.5 13.5 4.72386 13.5 5V11C13.5 11.2761 13.2761 11.5 13 11.5H3C2.72386 11.5 2.5 11.2761 2.5 11V5ZM6.67108 8C6.67108 7.17157 7.34265 6.5 8.17108 6.5C8.99951 6.5 9.67108 7.17157 9.67108 8C9.67108 8.82843 8.99951 9.5 8.17108 9.5C7.34265 9.5 6.67108 8.82843 6.67108 8ZM8.17108 5.5C6.79037 5.5 5.67108 6.61929 5.67108 8C5.67108 9.38071 6.79037 10.5 8.17108 10.5C9.55179 10.5 10.6711 9.38071 10.6711 8C10.6711 6.61929 9.55179 5.5 8.17108 5.5ZM5.23688 8C5.23688 8.55228 4.78916 9 4.23688 9C3.68459 9 3.23688 8.55228 3.23688 8C3.23688 7.44772 3.68459 7 4.23688 7C4.78916 7 5.23688 7.44772 5.23688 8ZM12.1053 9C12.6576 9 13.1053 8.55228 13.1053 8C13.1053 7.44772 12.6576 7 12.1053 7C11.5531 7 11.1053 7.44772 11.1053 8C11.1053 8.55228 11.5531 9 12.1053 9Z" fill="#8A8A8A"/>
</svg>
