<svg width="24" height="24" viewBox="0 0 24 24" fill="none" xmlns="http://www.w3.org/2000/svg">
<path fill-rule="evenodd" clip-rule="evenodd" d="M5.18591 10.9683C5.18591 7.77474 7.77479 5.18586 10.9683 5.18586C14.1619 5.18586 16.7507 7.77474 16.7507 10.9683C16.7507 14.1618 14.1619 16.7507 10.9683 16.7507C7.77479 16.7507 5.18591 14.1618 5.18591 10.9683ZM10.9683 3.68586C6.94636 3.68586 3.68591 6.94631 3.68591 10.9683C3.68591 14.9902 6.94636 18.2507 10.9683 18.2507C12.6312 18.2507 14.1639 17.6933 15.3899 16.7552L19.0572 20.117C19.3626 20.3969 19.837 20.3763 20.1169 20.0709C20.3968 19.7656 20.3762 19.2912 20.0708 19.0113L16.4841 15.7234C17.585 14.4476 18.2507 12.7857 18.2507 10.9683C18.2507 6.94631 14.9903 3.68586 10.9683 3.68586Z" fill="#333333"/>
</svg>
