<svg width="14" height="14" viewBox="0 0 14 14" fill="none" xmlns="http://www.w3.org/2000/svg">
<path fill-rule="evenodd" clip-rule="evenodd" d="M1.82031 7C1.82031 3.96243 4.28275 1.5 7.32031 1.5C10.3579 1.5 12.8203 3.96243 12.8203 7C12.8203 10.0376 10.3579 12.5 7.32031 12.5C4.28275 12.5 1.82031 10.0376 1.82031 7ZM7.32031 0.5C3.73046 0.5 0.820312 3.41015 0.820312 7C0.820312 10.5899 3.73046 13.5 7.32031 13.5C10.9102 13.5 13.8203 10.5899 13.8203 7C13.8203 3.41015 10.9102 0.5 7.32031 0.5ZM5.82031 8.6193V5.42379L8.37672 7.09353L5.82031 8.6193ZM5.90311 4.28345C5.43751 3.97935 4.82031 4.31341 4.82031 4.86951V9.14772C4.82031 9.6911 5.41247 10.0273 5.87906 9.7488L9.30163 7.70608C9.74596 7.44088 9.7589 6.8019 9.32567 6.51893L5.90311 4.28345Z" fill="#8A8A8A"/>
</svg>
