<svg width="24" height="29" viewBox="0 0 24 29" fill="none" xmlns="http://www.w3.org/2000/svg">
<path d="M12.9817 0.13428L11.5025 0.134277C11.0525 0.13428 10.6681 0.441623 10.4817 0.851273C9.36908 3.29768 6.59399 3.74055 6.19688 3.79196C6.16443 3.79616 6.13288 3.79761 6.10017 3.79761H1.53223C0.979942 3.79761 0.532227 4.24533 0.532227 4.79762V17.7451C0.532227 17.8246 0.540881 17.9013 0.560479 17.9784C1.43639 21.4223 4.90573 28.1462 12.0815 28.4609C12.1312 28.4631 12.1829 28.4611 12.2323 28.4553C19.3868 27.6118 22.7624 21.4796 23.6016 18.3844C23.6252 18.2973 23.6346 18.2098 23.6328 18.1196L23.3628 4.79936C23.3516 4.24643 22.894 3.80705 22.341 3.81251C21.3718 3.82207 19.9674 3.82466 18.5069 3.79761C16.633 3.76291 14.7745 1.85081 13.8346 0.579374C13.6332 0.306922 13.3205 0.134282 12.9817 0.13428Z" fill="#01A5EC"/>
<ellipse cx="12.0952" cy="14.1353" rx="7.63757" ry="7.56847" fill="white"/>
<path d="M8.13196 13.0743L10.9938 15.6121L15.7992 10.7526" stroke="#01A5EC" stroke-width="2" stroke-linecap="round"/>
</svg>
